<?xml version="1.0" encoding="UTF-8"?>
<!DOCTYPE svg PUBLIC "-//W3C//DTD SVG 1.1//EN" "http://www.w3.org/Graphics/SVG/1.1/DTD/svg11.dtd">
<svg xmlns="http://www.w3.org/2000/svg" version="1.1" width="736px" height="752px" style="shape-rendering:geometricPrecision; text-rendering:geometricPrecision; image-rendering:optimizeQuality; fill-rule:evenodd; clip-rule:evenodd" xmlns:xlink="http://www.w3.org/1999/xlink">
<g><path style="opacity:1" fill="#f8f9fe" d="M -0.5,-0.5 C 244.833,-0.5 490.167,-0.5 735.5,-0.5C 735.5,250.167 735.5,500.833 735.5,751.5C 490.167,751.5 244.833,751.5 -0.5,751.5C -0.5,500.833 -0.5,250.167 -0.5,-0.5 Z"/></g>
<g><path style="opacity:1" fill="#010102" d="M 140.5,137.5 C 140.897,136.475 141.563,136.308 142.5,137C 217.211,180.688 292.211,223.855 367.5,266.5C 441.959,223.872 516.292,181.038 590.5,138C 591.759,137.018 593.092,136.685 594.5,137C 565.621,185.921 537.121,235.088 509,284.5C 507.442,286.359 505.609,287.859 503.5,289C 457.971,314.928 412.638,341.094 367.5,367.5C 320.336,340.419 273.336,313.086 226.5,285.5C 198.312,235.776 169.645,186.443 140.5,137.5 Z"/></g>
<g><path style="opacity:1" fill="#010102" d="M 227.5,348.5 C 274.181,375.173 320.848,401.84 367.5,428.5C 414.149,401.684 460.815,375.184 507.5,349C 460.707,429.418 414.04,509.918 367.5,590.5C 320.346,510.038 273.68,429.371 227.5,348.5 Z"/></g>
</svg>
